<svg id="Capa_1" data-name="Capa 1" xmlns="http://www.w3.org/2000/svg" viewBox="0 0 407.62 171.7"><title>Logo-header</title><path d="M175.72,22.38q11.39,0,19.44,3.82a28.43,28.43,0,0,1,12.46,11q4.4,7.2,4.39,17.42a40.4,40.4,0,0,1-1.87,12.17,30.7,30.7,0,0,1-6,10.8,28.76,28.76,0,0,1-10.72,7.7,40.25,40.25,0,0,1-16.13,2.88H161.9V126.5h-14V22.38Zm1.44,52.42a22.9,22.9,0,0,0,10.23-2,17.43,17.43,0,0,0,6.33-5.12A20.58,20.58,0,0,0,197,61.12a22.41,22.41,0,0,0,1-6.19,22.93,22.93,0,0,0-1-6.55,17.15,17.15,0,0,0-3.39-6.2,18,18,0,0,0-6.19-4.6,22,22,0,0,0-9.43-1.8H161.9v39Z" transform="translate(-11.47 -13.07)" style="fill:#282658"/><path d="M233.61,22.38H301.3v13.4H247.58V67.46h48V80.85h-48v32.26h55.73V126.5h-69.7Z" transform="translate(-11.47 -13.07)" style="fill:#282658"/><path d="M417.66,129.81,337.15,48.16l4,1,.28,77.33h-14V19.21h.72l79.63,81.95-3.31-.72-.29-78.06h13.83V129.81Z" transform="translate(-11.47 -13.07)" style="fill:#282658"/><path d="M36.28,90.55a30.25,30.25,0,0,1,4.13-15.69A29.86,29.86,0,0,1,51.83,63.79a33.41,33.41,0,0,1,16.53-4.06A33.23,33.23,0,0,1,85,63.79,28.72,28.72,0,0,1,96.1,74.86,31.61,31.61,0,0,1,100,90.55a32,32,0,0,1-3.92,15.76A28.41,28.41,0,0,1,85,117.45a33.52,33.52,0,0,1-16.74,4.06,34.36,34.36,0,0,1-16.46-3.85,28.62,28.62,0,0,1-11.35-10.79A31.22,31.22,0,0,1,36.28,90.55Zm13,.14a20.63,20.63,0,0,0,2.52,10.16,19.38,19.38,0,0,0,6.79,7.21,17.49,17.49,0,0,0,9.46,2.67,18,18,0,0,0,9.73-2.67,18.37,18.37,0,0,0,6.66-7.21,22.88,22.88,0,0,0,0-20.32,18.91,18.91,0,0,0-6.66-7.28,17.68,17.68,0,0,0-9.73-2.73,17.11,17.11,0,0,0-9.6,2.8,20,20,0,0,0-6.72,7.35A20.76,20.76,0,0,0,49.31,90.69Z" transform="translate(-11.47 -13.07)" style="fill:#d35f2a"/><path d="M68.15,126.42A43.63,43.63,0,1,1,111.78,82.8,43.67,43.67,0,0,1,68.15,126.42Zm0-77.43A33.81,33.81,0,1,0,102,82.8,33.85,33.85,0,0,0,68.15,49Z" transform="translate(-11.47 -13.07)" style="fill:#d35f2a"/><path d="M68.15,126.42a56.68,56.68,0,1,1,56.67-56.67A56.74,56.74,0,0,1,68.15,126.42Zm0-103.52A46.85,46.85,0,1,0,115,69.75,46.89,46.89,0,0,0,68.15,22.9Z" transform="translate(-11.47 -13.07)" style="fill:#d35f2a"/><ellipse cx="56.68" cy="85.45" rx="13.03" ry="14.66" style="fill:#d35f2a"/><path d="M23.48,184.3V142H33.91a25.51,25.51,0,0,1,10.46,1.93,19.39,19.39,0,0,1,7,5.1,20.6,20.6,0,0,1,3.93,6.91,23.29,23.29,0,0,1,1.25,7.45,21.42,21.42,0,0,1-1.67,8.67,19.82,19.82,0,0,1-4.55,6.58,20.54,20.54,0,0,1-6.59,4.21,21.09,21.09,0,0,1-7.81,1.46Zm2.92-2.81h8.76a20.06,20.06,0,0,0,7.15-1.25,17.34,17.34,0,0,0,5.87-3.63,16.79,16.79,0,0,0,4-5.75,19.34,19.34,0,0,0,1.43-7.66,19.73,19.73,0,0,0-1.22-6.94,16.79,16.79,0,0,0-3.66-5.87,17.45,17.45,0,0,0-6-4,21.48,21.48,0,0,0-8.34-1.49H26.4Z" transform="translate(-11.47 -13.07)" style="fill:#282658"/><path d="M69.54,142h26.1v2.8H72.46v16.8H93.32v2.8H72.46v17.1h24v2.81H69.54Z" transform="translate(-11.47 -13.07)" style="fill:#282658"/><path d="M109.83,184.3V141h0l20.86,29.62-1.25-.18L150.29,141h.06V184.3h-2.86V147.77l.23,1.43-17.63,24.85H130L112.21,149.2l.48-1.31V184.3Z" transform="translate(-11.47 -13.07)" style="fill:#282658"/><path d="M163.34,163.2a21.09,21.09,0,0,1,1.66-8.37,22.41,22.41,0,0,1,4.65-6.92,21.91,21.91,0,0,1,6.89-4.7,20.61,20.61,0,0,1,8.37-1.7,20.82,20.82,0,0,1,8.4,1.7,21.77,21.77,0,0,1,6.91,4.7,22.5,22.5,0,0,1,4.68,6.92,21.45,21.45,0,0,1,0,16.74,22,22,0,0,1-4.68,6.89,21.6,21.6,0,0,1-6.91,4.64,21.14,21.14,0,0,1-8.4,1.67,21.59,21.59,0,0,1-8.37-1.61A21.17,21.17,0,0,1,165,171.78,21.77,21.77,0,0,1,163.34,163.2Zm3,.06a18.55,18.55,0,0,0,5.42,13.23,18.86,18.86,0,0,0,5.93,4,17.9,17.9,0,0,0,7.18,1.46,18.45,18.45,0,0,0,7.33-1.46,18.88,18.88,0,0,0,6-4,19.22,19.22,0,0,0,4-6,19.06,19.06,0,0,0,0-14.63,19.49,19.49,0,0,0-4-6,19,19,0,0,0-6-4.08,18,18,0,0,0-7.27-1.49,17.78,17.78,0,0,0-7.33,1.52,19,19,0,0,0-11.26,17.43Z" transform="translate(-11.47 -13.07)" style="fill:#282658"/><path d="M250,181.49a24.4,24.4,0,0,1-3.16,1.61,19.45,19.45,0,0,1-3.93,1.22,22.65,22.65,0,0,1-4.65.45,21.73,21.73,0,0,1-8.76-1.7,20.19,20.19,0,0,1-6.73-4.64,20.85,20.85,0,0,1-4.32-6.8,21.91,21.91,0,0,1-1.52-8.19,22.74,22.74,0,0,1,1.61-8.64,21,21,0,0,1,19.72-13.29,21.48,21.48,0,0,1,6.26.89,23.83,23.83,0,0,1,5.3,2.33l-1.25,2.68a22.76,22.76,0,0,0-4.71-2.21,17.2,17.2,0,0,0-5.54-.89,17.54,17.54,0,0,0-7.09,1.46,18.36,18.36,0,0,0-5.87,4,18.89,18.89,0,0,0-4,6.05,19.16,19.16,0,0,0-1.43,7.45,20.12,20.12,0,0,0,1.28,7.21,17.68,17.68,0,0,0,3.69,6,17.19,17.19,0,0,0,5.81,4A19.07,19.07,0,0,0,238.3,182a18.06,18.06,0,0,0,5.69-.86,20.13,20.13,0,0,0,4.62-2.18Z" transform="translate(-11.47 -13.07)" style="fill:#282658"/><path d="M272.62,142a16.77,16.77,0,0,1,4.74.68,13.11,13.11,0,0,1,4.29,2.15,10.92,10.92,0,0,1,3.13,3.72A11.44,11.44,0,0,1,286,154a15.27,15.27,0,0,1-.71,4.62,10.87,10.87,0,0,1-2.33,4,11.25,11.25,0,0,1-4.17,2.86,16.27,16.27,0,0,1-6.31,1.08h-6.56V184.3H263V142Zm-.35,21.75a13.28,13.28,0,0,0,5.24-.9,8.58,8.58,0,0,0,3.28-2.32,8.87,8.87,0,0,0,1.7-3.13,11.77,11.77,0,0,0,.5-3.31,9.41,9.41,0,0,0-.68-3.57,8.82,8.82,0,0,0-2-2.95,9.54,9.54,0,0,0-3.16-2,10.82,10.82,0,0,0-4.11-.74h-7.15v19Zm6.07,1.31,11.74,19.25h-3.39l-11.8-19.19Z" transform="translate(-11.47 -13.07)" style="fill:#282658"/><path d="M299.2,184.3l17.88-44.16h.24l17.87,44.16h-3.27l-15.56-39.51,2-1.14L302.12,184.3Zm8.64-16.75h18.77l.84,2.74H307.13Z" transform="translate(-11.47 -13.07)" style="fill:#282658"/><path d="M375.89,181.49a24.24,24.24,0,0,1-3.15,1.61,19.75,19.75,0,0,1-3.94,1.22,22.65,22.65,0,0,1-4.65.45,21.8,21.8,0,0,1-8.76-1.7,20.29,20.29,0,0,1-6.73-4.64,20.85,20.85,0,0,1-4.32-6.8,22.12,22.12,0,0,1-1.52-8.19,22.94,22.94,0,0,1,1.61-8.64,21,21,0,0,1,19.72-13.29,21.48,21.48,0,0,1,6.26.89,23.71,23.71,0,0,1,5.31,2.33l-1.26,2.68a22.92,22.92,0,0,0-4.7-2.21,17.26,17.26,0,0,0-5.55-.89,17.58,17.58,0,0,0-7.09,1.46,18.47,18.47,0,0,0-5.87,4,18.89,18.89,0,0,0-4,6.05,19.35,19.35,0,0,0-1.43,7.45,20.34,20.34,0,0,0,1.28,7.21,17.86,17.86,0,0,0,3.7,6,17,17,0,0,0,5.81,4,19,19,0,0,0,7.56,1.46,18,18,0,0,0,5.69-.86,20.13,20.13,0,0,0,4.62-2.18Z" transform="translate(-11.47 -13.07)" style="fill:#282658"/><path d="M400.38,169.22,384.59,142h3.58l14.24,24.79-1,.06L415.58,142h3.52l-15.8,27.23V184.3h-2.92Z" transform="translate(-11.47 -13.07)" style="fill:#282658"/></svg>